
        <svg xmlns="http://www.w3.org/2000/svg" xmlns:xlink="http://www.w3.org/1999/xlink" version="1.1" width="3187.5" height="1126.3913988744266" viewBox="0 0 3187.5 1126.3913988744266">
			
			<g transform="scale(9.375) translate(10, 10)">
				<defs id="SvgjsDefs3014"/><g id="SvgjsG3015" featureKey="S6ay6y-0" transform="matrix(1.1127540450373685,0,0,1.1127540450373685,-5.636945612736769,-5.56349006707919)" fill="#fff"><path xmlns="http://www.w3.org/2000/svg" d="M36.197,63.736c13.419,13.419,35.254,13.419,48.672,0s13.419-35.253,0-48.672s-35.254-13.419-48.672,0  S22.778,50.317,36.197,63.736z M59.431,55.013l3.145,11.744l-4.985,4.985c-4.097-0.37-8.027-1.492-11.683-3.335  c-2.016-1.012-3.918-2.228-5.654-3.618l-1.154-4.323l8.592-8.592L59.431,55.013z M33.96,58.089  c-3.939-5.589-5.976-12.183-5.898-19.081l3.383-3.383l11.744,3.146l3.14,11.738l-8.592,8.592L33.96,58.089z M81.613,49.077  L84.8,60.996c-0.466,0.531-0.878,0.973-1.288,1.383c-0.849,0.849-1.761,1.657-2.789,2.47c-0.086,0.074-0.172,0.14-0.251,0.2  c-1.953,1.517-4.059,2.803-6.264,3.828l-9.772-2.621l-3.151-11.738l8.587-8.587L81.613,49.077z M31.946,33.767l-1.664-6.205  c1.13-2.901,2.677-5.624,4.6-8.095c0.863-1.11,1.762-2.133,2.673-3.044c0.75-0.75,1.574-1.49,2.517-2.261l9.053,2.428l3.146,11.743  l-8.587,8.587L31.946,33.767z M65.867,30.972L54.13,27.831l-3.147-11.743l8.592-8.592l11.738,3.152l3.146,11.733L65.867,30.972z   M87.555,26.889l3.151,11.738l-8.592,8.592l-11.743-3.146L67.23,32.335l8.592-8.592L87.555,26.889z M89.413,26.388l0.615-0.615  c1.808,3.921,2.799,8.112,2.952,12.468l-0.416-0.114L89.413,26.388z"/><path xmlns="http://www.w3.org/2000/svg" d="M11.816,89.773l21.73-21.73c0.458-0.458,0.457-1.198,0-1.656c-0.457-0.457-1.198-0.458-1.656,0l-21.73,21.73  c-0.458,0.458-0.457,1.198,0,1.656C10.617,90.231,11.358,90.231,11.816,89.773z"/><path xmlns="http://www.w3.org/2000/svg" d="M23.022,94.657c0.265-0.265,0.399-0.654,0.323-1.05c-0.662-3.446,0.944-7.408,4.407-10.871l10.244-10.244  c0.458-0.458,0.457-1.198,0-1.656c-0.457-0.457-1.198-0.458-1.656,0L26.095,81.082c-4.02,4.02-5.861,8.747-5.051,12.968  c0.122,0.635,0.736,1.051,1.37,0.929C22.654,94.933,22.861,94.817,23.022,94.657z"/><path xmlns="http://www.w3.org/2000/svg" d="M18.985,73.706l10.244-10.244c0.458-0.458,0.457-1.198,0-1.656c-0.457-0.457-1.198-0.458-1.656,0L17.329,72.05  c-3.462,3.462-7.424,5.069-10.871,4.407c-0.635-0.121-1.249,0.296-1.371,0.93c-0.122,0.635,0.294,1.248,0.929,1.37  C10.238,79.567,14.965,77.726,18.985,73.706z"/></g><g id="SvgjsG3016" featureKey="j5pGhi-0" transform="matrix(2.5299528567744645,0,0,2.5299528567744645,117.94947254125225,20.05542340113743)" fill="#fff"><path d="M9.9023 4.707000000000001 l0 1.377 l-5.1563 0 l-0.71289 3.9551 q0.9375 -0.283203125 1.69921875 -0.283203125 q1.982421875 0 3.266601563 1.323242188 t1.2842 3.3936 q0 1.42578125 -0.6591796875 2.6171875 t-1.7871 1.8262 t-2.6123 0.63477 q-1.7578125 0 -2.96875 -1.079101563 t-1.4453 -2.7881 l1.4844 0 q0.166015625 0.830078125 0.56640625 1.352539063 t1.0693 0.84473 t1.3916 0.32227 q1.42578125 0 2.446289063 -1.083984375 t1.0205 -2.7051 q0 -1.474609375 -0.9228515625 -2.387695313 t-2.4756 -0.91309 q-1.279296875 0 -3.095703125 0.78125 l1.3379 -7.1875 l6.2695 0 z M23.1054875 4.901999999999999 l6.748 14.482 l-1.543 0 l-2.2754 -4.7754 l-6.25 0 l-2.2559 4.7754 l-1.6211 0 l6.8457 -14.482 l0.35156 0 z M22.9296875 7.968999999999999 l-2.5 5.2539 l4.9609 0 z M32.285196875 11.8359 l5.4102 0 l0 1.2109 l-5.4102 0 l0 -1.2109 z M40.53710875 16.4941 l1.2305 -0.74219 q1.298828125 2.392578125 2.998046875 2.392578125 q0.732421875 0 1.376953125 -0.341796875 t0.97656 -0.9082 t0.33203 -1.2109 q0 -0.72265625 -0.48828125 -1.42578125 q-0.68359375 -0.966796875 -2.490234375 -1.97265625 q-1.81640625 -1.3671875 -2.24609375 -1.982421875 q-0.771484375 -1.015625 -0.771484375 -2.216796875 q0 -0.947265625 0.44921875 -1.71875 t1.2744 -1.2256 t1.792 -0.4541 q1.015625 0 1.904296875 0.5126953125 t1.8848 1.8701 l-1.1816 0.88867 q-0.810546875 -1.07421875 -1.38671875 -1.420898438 t-1.2598 -0.34668 q-0.869140625 0 -1.42578125 0.5322265625 t-0.55664 1.3037 q0 0.46875 0.1953125 0.91796875 t0.72266 0.95703 q0.283203125 0.283203125 1.875 1.455078125 q1.875 1.38671875 2.573242188 2.294921875 t0.69824 1.9922 q0 1.58203125 -1.196289063 2.744140625 t-2.9053 1.1621 q-1.328125 0 -2.40234375 -0.703125 t-1.9727 -2.3535 z M52.021465625 4.3260000000000005 q0.46875 0 0.8056640625 0.33203125 t0.33691 0.80078 t-0.33691 0.80566 t-0.80566 0.33691 t-0.80078 -0.33691 t-0.33203 -0.80566 t0.33203 -0.80078 t0.80078 -0.33203 z M51.337865625 8.73 l1.377 0 l0 10.713 l-1.377 0 l0 -10.713 z M65.469203125 17.3633 q0.87890625 -1.46484375 1.0546875 -2.880859375 q0 -10.16601563 0 -10.14648438 l-1.3672 0 l0 5.9766 q-0.869140625 -1.064453125 -1.943359375 -1.586914063 t-2.3535 -0.52246 q-2.265625 0 -3.876953125 1.650390625 t-1.6113 4.0039 q0 2.314453125 1.62109375 3.955078125 t3.9063 1.6406 q1.30859375 0 2.456054688 -0.5029296875 t2.1143 -1.5869 z M61.015603125 18.1348 q-1.162109375 0 -2.133789063 -0.5712890625 t-1.5479 -1.5869 t-0.57617 -2.168 q0 -1.1328125 0.5810546875 -2.172851563 t1.5625 -1.6113 t2.0947 -0.57129 q1.1328125 0 2.1484375 0.5712890625 t1.5625 1.5527 t0.54688 2.1924 q0 1.865234375 -1.23046875 3.115234375 t-3.0078 1.25 z M78.3595 15.6348 l1.1523 0.61523 q-0.556640625 1.123046875 -1.30859375 1.806640625 t-1.6895 1.04 t-2.1191 0.35645 q-2.6171875 0 -4.091796875 -1.713867188 t-1.4746 -3.8721 q0 -2.041015625 1.25 -3.6328125 q1.58203125 -2.03125 4.248046875 -2.03125 q2.724609375 0 4.365234375 2.080078125 q1.162109375 1.46484375 1.171875 3.65234375 l-9.6191 0 q0.0390625 1.875 1.19140625 3.071289063 t2.8418 1.1963 q0.8203125 0 1.591796875 -0.2880859375 t1.3135 -0.75684 t1.1768 -1.5234 z M78.3595 12.7539 q-0.2734375 -1.103515625 -0.80078125 -1.762695313 t-1.3965 -1.0645 t-1.8262 -0.40527 q-1.572265625 0 -2.705078125 1.015625 q-0.8203125 0.7421875 -1.240234375 2.216796875 l7.9688 0 z"/></g>
			</g>
		</svg>
	