
        <svg xmlns="http://www.w3.org/2000/svg" xmlns:xlink="http://www.w3.org/1999/xlink" version="1.1" width="3155.700500003487" height="3189.8165714287807" viewBox="0 0 3155.700500003487 3189.8165714287807">
			
			<g transform="scale(9.490828571439058) translate(10, 10)">
				<defs id="SvgjsDefs2160"/><g id="SvgjsG2161" featureKey="rootContainer" transform="matrix(3.041286428519188,0,0,3.041286428519188,-0.10476576370784933,0.08750903180830606)" fill="#fff"><path xmlns="http://www.w3.org/2000/svg" d="M101.7 40.8A50.6 50.6 0 0 0 96.2 26a48.8 48.8 0 0 0-5.9-8.3l-1.8-2-.6-.7-.7-.6-2-1.8a48.8 48.8 0 0 0-8.3-5.9 50.6 50.6 0 0 0-14.8-5.6A51.7 51.7 0 0 0 41.6.9a52.3 52.3 0 0 0-11.2 3.6A51 51 0 0 0 6.7 26.4c-.6 1-1.1 2.1-1.6 3.1s-1 2.1-1.4 3.3A49.9 49.9 0 0 0 1.8 39c-.3 1.2-.6 2.3-.8 3.5a48.6 48.6 0 0 0 1.8 25.8 48 48 0 0 0 6.4 13.9 48.6 48.6 0 0 0 20.7 17.5L33 101l3.1 1a47.7 47.7 0 0 0 6.3 1.4 49.1 49.1 0 0 0 12.5.2 48.2 48.2 0 0 0 11.5-2.8 49.7 49.7 0 0 0 5.2-2.3l1.6-.7 3.1-1.6a50.6 50.6 0 0 0 5.8-3.7 52.1 52.1 0 0 0 9.5-9.2 51 51 0 0 0 6.6-10.7 52.3 52.3 0 0 0 3.6-11.2 51.7 51.7 0 0 0-.1-20.6zm-29.3 57l-2.4 1A51 51 0 0 1 19.7 91a47.9 47.9 0 0 0 8.1 4.8 48 48 0 0 0 14.6 5.5 48.6 48.6 0 0 0 27-2.3l3.1-1.3 2.5-1.3zM3.3 69.1l-.5-1.9a51.5 51.5 0 0 0 5.5 11.5c-.7-1.1-1.4-2.2-2-3.3s-1-1.9-1.5-2.9-.9-2-1.3-3zm14.6 18.8A48.1 48.1 0 0 1 7 36.5c.4-1 .9-2 1.3-3s.9-2 1.5-2.9a47.6 47.6 0 0 1 3.5-5.4 49.9 49.9 0 0 1 8.7-9l1.7-1.3a47.1 47.1 0 0 1 6.3-3.4l3.1-1.2 3.1-1a47.6 47.6 0 0 1 6.3-1.4 49.8 49.8 0 0 1 12.4-.2 48 48 0 0 1 11.5 2.7 49 49 0 0 1 9.8 5 48.6 48.6 0 0 1 13.6 13.7 47.1 47.1 0 0 1 4.5 8.6 47.7 47.7 0 0 1 1.3 24.2 47.6 47.6 0 0 1-5.2 13.9 45.9 45.9 0 0 1-5.5 7.8l-1.7 1.9-.6.6-.6.6-2 1.8a46 46 0 0 1-7.8 5.5 47.6 47.6 0 0 1-13.9 5.2 48.7 48.7 0 0 1-19.2.1 49.3 49.3 0 0 1-9.8-3.1 47.9 47.9 0 0 1-11.4-8.3zm-4.9-63a48 48 0 0 0-3.5 5.5c-.6.9-1 2-1.5 2.9s-.9 2-1.3 3.1a48.5 48.5 0 0 0 11 51.7 48.1 48.1 0 0 0 8.3 6.6 49.7 49.7 0 0 1-7.5-4.9L16.3 88l-.7-.7a50.9 50.9 0 0 1-13.7-25 47.2 47.2 0 0 1-.5-6.8 48 48 0 0 1 17-36.7 51.2 51.2 0 0 0-5.4 6.1zM75.2 96l-2.9 1.5-3 1.3a48.3 48.3 0 0 1-26.9 2.2 47.4 47.4 0 0 1-11.3-3.8 49.5 49.5 0 0 0 7.9 2.3 48.8 48.8 0 0 0 19.3-.1 47.8 47.8 0 0 0 13.9-5.3 46.1 46.1 0 0 0 7.8-5.6l1.9-1.7.6-.6.6-.6 1.7-1.9a46.1 46.1 0 0 0 5.6-7.8A47.8 47.8 0 0 0 95.7 62a48.9 48.9 0 0 0 .1-19.3l-.3-1.5.4 1.5a46 46 0 0 1 1.6 9.5c.1 1.1.1 2 .1 2.5v1.7c0 .6 0 1.4-.1 2.5a45.9 45.9 0 0 1-1.5 9.4 47.7 47.7 0 0 1-6.2 13.6 48.8 48.8 0 0 1-11.4 12.2zm14.7-14A47.7 47.7 0 0 0 96 68.4a46 46 0 0 0 1.6-9.5c.1-1.1.1-2 .1-2.5v-1.8c0-.6 0-1.4-.1-2.5a46 46 0 0 0-1.6-9.5l-.8-2.7a49.5 49.5 0 0 0-2.7-7.8 48.4 48.4 0 0 0-15.2-18.9l-2.7-1.9 1 .6a46 46 0 0 1 7.8 5.5l1.9 1.7.6.6.6.6 1.7 1.9a46 46 0 0 1 5.5 7.8 47.7 47.7 0 0 1 5.4 14 48.7 48.7 0 0 1 .1 19.2 49.3 49.3 0 0 1-3.4 10.5 48 48 0 0 1-6.2 10.1 49.1 49.1 0 0 1-9 8.7l-.6.4a48.9 48.9 0 0 0 9.9-11zM71.7 10a47.4 47.4 0 0 1 5.4 3.5 49.8 49.8 0 0 1 8.9 8.7 47.9 47.9 0 0 1 6.2 10l1.5 3.6A47 47 0 0 0 90 29a48.8 48.8 0 0 0-13.6-13.8 49.5 49.5 0 0 0-9.9-5.1 48.4 48.4 0 0 0-24.1-2.6A47.8 47.8 0 0 0 36 8.9l-3.1 1-3.1 1.3-1.1.5L32 10a49.1 49.1 0 0 1 10.5-3.4 48.6 48.6 0 0 1 19.2 0 46.8 46.8 0 0 1 8.6 2.6zm-9.9-3.5a48.9 48.9 0 0 0-19.3-.1 49.5 49.5 0 0 0-10.6 3.3 47.2 47.2 0 0 0-8.2 4.7 48.4 48.4 0 0 0-22.6 41c0 .9 0 1.8.1 2.8a51.3 51.3 0 0 1 1.6-21.5A48.1 48.1 0 0 1 65.7 7.2l3 1.3h.2a47.1 47.1 0 0 0-7.1-2zM.3 49.4a51.1 51.1 0 0 0 1 12l.3 1.5.4 2.2A48.6 48.6 0 0 1 .3 49.4zm66.1 51.2a48.1 48.1 0 0 1-11.4 2.7 49.1 49.1 0 0 1-12.5-.2 47.5 47.5 0 0 1-6.3-1.4l-3.1-1-3.1-1.2A48.3 48.3 0 0 1 9.4 82.1a47.2 47.2 0 0 1-5-9.9l.2.4c.5 1 1 2 1.5 2.9A47.8 47.8 0 0 0 9.6 81a52.7 52.7 0 0 0 3.6 4.2l2.2 2.3a51.3 51.3 0 0 0 54.3 11.7zm35.3-39.4a52.2 52.2 0 0 1-3.6 11.1A51 51 0 0 1 91.6 83a52.1 52.1 0 0 1-9.5 9.2 50.7 50.7 0 0 1-5.8 3.7l-2 1 2-1.3.7-.5 3.7-2.5a49.1 49.1 0 0 0 9-8.7 48.2 48.2 0 0 0 6.2-10.1 49.4 49.4 0 0 0 3.4-10.6 48.8 48.8 0 0 0-.1-19.2 47.8 47.8 0 0 0-5.3-14 46.1 46.1 0 0 0-5.6-7.8l-1.7-1.9-.6-.6-.6-.6-1.9-1.7a46 46 0 0 0-7.8-5.6l-2.2-1.2-1.6-.9-3-1.5-3.1-1.3A48.4 48.4 0 0 0 5.3 30v-.3c.5-1 1-2.1 1.6-3.1a50.4 50.4 0 0 1 3.7-5.7 52.8 52.8 0 0 1 9.2-9.5 50.9 50.9 0 0 1 10.7-6.6 52.1 52.1 0 0 1 11.2-3.6 51.5 51.5 0 0 1 20.3.1 50.4 50.4 0 0 1 14.8 5.5 48.7 48.7 0 0 1 8.3 5.9l2 1.8.7.6.6.7 1.8 2a48.6 48.6 0 0 1 5.9 8.3 50.5 50.5 0 0 1 5.5 14.8 51.5 51.5 0 0 1 .1 20.3z"/></g><g id="SvgjsG2162" featureKey="symbolFeature-0" transform="matrix(0.7500135042714697,0,0,0.7500135042714697,118.94017682126845,77.99864125785537)" fill="#fff"><path xmlns="http://www.w3.org/2000/svg" d="M47.041,85.6c0,4.209-3.412,7.621-7.621,7.621c-4.208,0-7.62-3.412-7.62-7.621  c0-4.208,3.412-7.621,7.62-7.621C43.629,77.979,47.041,81.392,47.041,85.6z M84.421,47.277c-5.21,1.406-10.037,3.25-13.236,5.65  c-1.907,1.431-2.719,2.69-3.063,3.494c-0.333,0.776-0.301,1.279-0.293,1.353l0.272,1.153l-1.189-0.211c0,0-0.272-0.038-0.687-0.038  c-1.016,0-2.86,0.223-3.795,1.719c-0.864,1.382-1.193,2.313-1.319,2.826c1.358,0.532,5.452,2.126,5.452,2.126  c5.447-5.958,13.434-11.51,19.46-15.27c-0.032-0.455-0.15-1.203-0.568-1.74C85.03,47.795,84.654,47.459,84.421,47.277z   M38.957,44.72c2.562-2.725,4.664-6.08,6.254-9.984c-0.438-0.037-0.988-0.067-1.586-0.067c-1.545,0-2.831,0.208-3.721,0.6  c-1.598,0.706-2.221,1.238-2.429,1.454c-0.063,2.112-0.398,3.808-1.051,5.32c-1.155,2.678-3.984,5.583-8.407,8.635  c-0.954,0.658-1.876,1.248-2.705,1.755c1.661-0.351,3.727-0.964,5.938-2.033C34.131,49.005,36.725,47.095,38.957,44.72z   M65.965,57.062c-8.942-7.379-14.152-17.501-14.043-23.847c0.119-6.955-1.319-9.232-1.319-9.232c2.598-2.108,4.723-4.32,6.462-6.507  c-0.067-0.333-0.253-1.076-0.747-2.361c-0.429-1.116-1.648-1.805-2.384-2.131c-0.673,0.084-1.41,0.143-2.252,0.238  c-2.938,0.33-3.896-0.21-5.936-0.09c-0.339,0.021-0.679,0.044-1.017,0.078c0,0,2.055-7.943-2.76-11.528  c-5.331-3.971-13.667-0.481-13.077,6.05c0,0,1.86-0.127,2.16-0.127c1.595,0,3.056,0.32,4.343,0.952  c3.435,1.686,5.788,4.823,5.888,4.956l0.561,0.755l-0.83,0.443c-0.787,0.419-1.416,0.989-1.985,1.806  c-0.087,0.137-0.408,0.702-0.408,0.702c-0.302,0.571-0.585,1.222-0.847,1.969c-1.932,5.518-0.752,10.933-0.687,15.767  c0.492-0.34,1.186-0.734,2.163-1.166c1.109-0.49,2.581-0.738,4.375-0.738c1.563,0,2.801,0.191,2.853,0.199l0.983,0.155l-0.352,0.932  c-1.706,4.523-4.052,8.391-6.972,11.496c-0.39,0.415-0.792,0.815-1.202,1.204c0.132,0.729,0.276,1.616,0.276,2.007  c0,0.719-0.231,1.636-0.231,1.636c-3.332,2.802-6.889,6.402-9.889,9.63c1.717-0.612,4.508-1.482,6.5-1.482  c1.353,0,2.249,0.403,2.666,1.198c0.833,1.591,0.749,3.1,0.549,4.052l9.398-6.042c4.034,2.403,4.535,2.763,11.222,5.399  c0.062-0.604,0.362-1.869,1.628-3.895C62.322,57.512,64.575,57.104,65.965,57.062z M32.765,11.659  c0.353,2.815,0.849,3.564,1.699,4.024c0.437,0.236,1.078,0.36,1.854,0.361c0.455,0,0.865-0.043,1.132-0.081  c0.574-0.908,1.217-1.615,1.971-2.166c-0.845-0.963-2.577-2.728-4.738-3.789c-0.822-0.403-1.738-0.653-2.733-0.746  C32.311,9.871,32.641,10.667,32.765,11.659z M94.587,45.08c-2.718,0.468-5.548,1.036-8.313,1.719  c0.147,0.162,0.302,0.343,0.46,0.547c0.438,0.564,0.671,1.229,0.792,1.809c0,0,0.033-0.074,2.726-1.627  C92.942,45.974,94.587,45.08,94.587,45.08z M35.592,60.447c-2.402,0-6.395,1.536-7.252,1.876c-2.876,3.159-5.062,5.763-5.657,6.479  c-0.772,9.536-2.638,16.546-5.548,20.837c-0.883,1.304-2.146,2.749-3.833,3.757c0.201,0.357,0.651,0.903,1.644,1.361  c1.316,0.607,2.768,0.733,3.512,0.754c3.762-5.557,7.538-12.054,9.108-17.634c0.99-3.517,0.755-5.568,0.489-6.173l-0.325-0.574  l0.523-0.402c1.95-1.671,4.924-3.86,8.842-6.507c0.172-0.5,0.527-1.917-0.273-3.444C36.738,60.617,36.371,60.447,35.592,60.447z   M11.842,94.105c-0.951,0.362-2.01,0.578-3.183,0.578c-1.228,0-2.339-0.237-3.246-0.531c0.696,1.001,1.894,2.304,3.943,3.689  c1.684,1.138,3.317,1.477,4.416,1.894c0.688,0.192,1.19,0.25,1.488,0.265c0.761-1.031,1.327-1.785,2.132-2.938  c-0.895-0.101-2.035-0.328-3.126-0.832C12.854,95.578,12.172,94.733,11.842,94.105z M58.285,15.806  c3.787-3.486,6.008-7.763,6.661-12.124c0,0-2,3.702-4.024,6.059c-2.025,2.356-4.776,2.668-4.776,2.668  c0.681,0.514,1.334,1.211,1.685,2.124C58.02,15.023,58.168,15.446,58.285,15.806z"/></g><g id="SvgjsG2163" featureKey="nameFeature-0" transform="matrix(1.4944792223581718,0,0,1.4944792223581718,52.992612049740416,158.4138881487109)" fill="#fff"><path d="M8.96 14.52 c0.28 -0.08 6.32 0.2 7.28 0.08 c0.36 0 0.72 -0.2 0.72 -1.08 l0 -3.08 c-0.04 -0.32 -0.28 -0.48 -0.6 -0.48 c-0.68 0 -1.36 0 -2.04 0.04 c-1.36 0.08 -6.84 0 -8.6 0.08 c-0.64 0.04 -0.8 0.84 -0.84 1.48 c-0.08 0.48 -0.64 11.2 -0.64 12.12 c0 0.88 0.52 0.76 1 0.36 c0.2 -0.2 0.8 -0.96 2.44 -0.96 c2.76 0 5.2 2.28 5.2 5.8 c0 5.6 -2.84 6.56 -4.48 6.56 c-1.16 0 -1.68 -0.24 -2.56 -0.8 c-0.32 -0.2 -0.6 -0.44 -0.88 -0.64 c-0.32 -0.2 -0.6 -0.2 -0.88 0.08 c-0.68 1.04 -1.32 2.04 -2 3.2 c-0.16 0.44 -0.04 0.72 0.4 1 c1.28 0.72 2.8 1.72 7.28 1.72 c6.16 0 8.16 -6.96 8.16 -11.2 c0 -4.56 -3.72 -9.48 -7.12 -9.48 c-1.28 0 -1.96 0.2 -2.16 0.2 c-0.32 0 -0.28 -0.56 -0.24 -1.36 c0 -0.56 0.08 -1.6 0.08 -2.16 c0.08 -1 0.04 -1.48 0.48 -1.48 z M37.084 39.68 c0.12 0.04 0.48 0.04 0.84 0.04 c0.8 0 1.04 -2.88 1.12 -3.48 c0.04 -0.48 0.16 -0.52 0.56 -0.6 c2 -0.24 3 -0.08 5 -0.04 c0.44 0 0.68 0.2 0.8 0.56 l0.28 0.92 c0.24 0.68 0.44 1.52 0.68 2.2 c0.16 0.48 0.2 0.44 0.68 0.44 c0.64 0 2.96 0 3.64 -0.04 c0.92 0 0.28 -1.88 0.16 -2.2 c-0.36 -1.12 -0.44 -2.28 -0.8 -3.4 c-0.16 -0.48 -4.72 -22.12 -4.92 -23.32 c-0.28 -0.72 -0.04 -0.76 -0.68 -0.76 c-1.36 0 -2.8 0.08 -4.2 0 c-0.56 0 -0.52 0.16 -0.6 0.76 c-0.08 0.56 -1.52 6.92 -2.08 9.56 c-0.72 3.32 -1.36 6.52 -2.16 9.8 c-0.28 1.16 -2.2 9.52 -1.96 9.56 c0.12 0.08 0.32 0.04 0.48 0.04 c1 0 1.92 0 3.16 -0.04 z M42.324000000000005 30.6 l-0.84 0 c-1.12 0 -1.16 0 -0.88 -1.16 c0.2 -0.88 1.28 -5.64 1.52 -6.8 c0.04 -0.08 0.12 -0.16 0.16 -0.16 c0.08 0 0.16 0.08 0.2 0.12 c0.16 0.48 0.32 1.68 0.48 2.16 c0.36 1.52 0.6 2.8 0.96 4.44 c0.36 1.44 0.2 1.44 -0.52 1.44 c-0.36 0 -0.72 -0.04 -1.08 -0.04 z M56.626000000000005 31.240000000000002 c0.28 0.08 0.76 0.04 2.84 0.04 c1.4 0 2.92 -0.04 4.32 -0.04 c1.52 0 1.44 -0.6 1.44 -1.4 c0.04 -1.16 0.08 -1.72 0.08 -2.88 c0 -0.76 -0.2 -1.08 -0.96 -1.08 c-3.92 0 -4.72 0.16 -6.36 0.04 c-0.56 -0.04 -1.12 0 -1.68 0.08 c-0.2 0 -0.4 0.12 -0.4 0.48 c0.08 1.28 0.08 2.52 0.12 3.84 c0.04 0.52 0.08 0.76 0.6 0.92 z M78.208 9.8 c-0.76 0.04 -1.52 0.16 -2.28 0.4 c-1.64 0.56 -3.12 1.68 -4.12 3.12 c-0.88 1.32 -1.24 2.88 -1.36 4.44 c-0.08 1.2 0.04 2.44 0.6 3.52 c0.6 1.16 1.64 2.16 2.52 3.12 c0.8 0.84 1.6 1.68 2.48 2.44 c0.8 0.76 1.72 1.36 2.52 2.16 c1.16 1.16 1.6 3.8 0.76 5.24 c-1 1.6 -3.36 1.84 -4.92 1.32 c-0.8 -0.28 -1.52 -0.88 -2.2 -1.36 c-0.4 -0.28 -0.88 -0.4 -1.16 0.08 c-0.16 0.24 -0.24 0.52 -0.32 0.76 c-0.28 1 -0.64 1.92 -0.68 3 c-0.04 1.24 2.32 1.6 3.2 1.8 c3.92 0.92 8.64 0.2 10.68 -3.68 c0.4 -0.8 0.68 -1.64 0.84 -2.52 c0.04 -0.32 0.08 -0.6 0.08 -0.92 c0.16 -2.56 -0.88 -4.72 -2.44 -6.64 c-1.68 -2.08 -3.8 -3.52 -5.76 -5.32 c-1.2 -1.12 -1.64 -2.88 -1.28 -4.48 c0.36 -1.72 2.32 -2.16 3.8 -1.72 c0.44 0.12 0.8 0.32 1.2 0.56 c0.24 0.12 0.48 0.28 0.8 0.28 c0.56 0.04 0.64 -0.4 0.76 -0.84 c0.28 -1 0.76 -1.8 0.96 -2.76 c0.2 -1.08 -0.68 -1.28 -1.56 -1.56 c-1.04 -0.28 -2.04 -0.48 -3.12 -0.44 z M95.11 29.68 c-0.12 -4.56 -0.08 -9.4 -0.04 -13.92 c0 -1.4 -0.08 -2.92 -0.08 -4.32 c0 -1.52 -0.6 -1.44 -1.4 -1.48 c-1.16 -0.04 -1.68 -0.04 -2.84 -0.04 c-0.76 -0.04 -1.08 0.16 -1.08 0.92 c0 3.92 -0.12 15 -0.08 16.6 s0.2 8.88 0.12 10.48 c-0.04 0.56 0 1.12 0.04 1.68 c0.04 0.2 0.16 0.4 0.48 0.4 c1.32 -0.08 2.56 -0.08 3.88 -0.12 c0.48 -0.04 0.88 -0.16 1.08 -0.68 c0.04 -0.28 -0.08 -7.6 -0.08 -9.52 z M116.772 32.64 c0.24 -0.52 0.44 -1.04 0.64 -1.56 c0.44 -1.28 0.52 -2.6 0.64 -3.92 c0.24 -2.8 0.16 -5.64 -0.56 -8.36 c-0.88 -3.48 -3.12 -6.68 -6.48 -8.16 c-1.52 -0.68 -3.24 -0.76 -4.88 -0.72 c-1.72 0 -3.48 -0.08 -5.2 0.08 c-0.48 0.04 -0.72 0.28 -0.8 0.72 c-0.08 0.48 -0.16 0.96 -0.16 1.4 c0.08 2.44 0 9.68 0.08 10.88 c0.04 1.08 -0.08 2.4 -0.08 3.48 c0.04 2.68 0 5.4 0 8.08 c0 1.12 -0.04 2.2 -0.04 3.32 c0 1.2 -0.44 1.72 2.84 1.72 c2.92 0 5.96 -0.24 8.72 -1.28 c2.56 -0.92 4.16 -3.28 5.28 -5.68 z M105.132 28.48 l0 -4.8 c0 -3.04 0.08 -5 -0.04 -7.56 l0 -0.48 c0.04 -0.84 0.16 -0.88 1.04 -0.88 c1.16 -0.04 2 0.24 3 0.64 s1.56 1.28 2.08 2.12 c1 1.64 1.4 3.44 1.48 5.32 c0.04 1.08 0.08 2.16 0.08 3.24 c0 5.12 -3 8.68 -5.64 8.68 c-1.76 0 -2.04 0.12 -2.04 -1.04 c0 -1.2 0.08 -2.4 0.08 -3.6 c-0.04 -0.52 -0.04 -1.08 -0.04 -1.64 z M122.95400000000001 31.8 l-0.04 0 c0 1 -0.04 2.04 0 3.08 c0.04 1.28 0.12 2.56 0.2 3.84 c0 0.44 0.12 0.56 0.52 0.64 c0.84 0.2 1.64 0.24 2.48 0.24 c2.16 -0.08 4.32 0.08 6.48 0 c0.88 -0.04 1.28 0.04 2.16 -0.12 c0.8 -0.16 1.08 -0.6 1.08 -1.8 c-0.08 -0.76 -0.04 -1.08 -0.04 -2 c0 -1.32 -0.92 -1.76 -1.72 -1.72 c-0.56 0.04 -3.24 -0.04 -4.32 -0.04 c-1.8 0.04 -1.52 0.28 -1.52 -1.6 c0 -1.52 0.04 -3.48 0.04 -5.04 c0 -0.84 0.08 -1.12 0.88 -1.12 l5 0 c0.8 0.12 1.36 -0.44 1.36 -1.28 s0.08 -0.88 0.08 -1.72 l-0.12 -1.2 c-0.08 -0.68 -0.32 -0.92 -1 -0.92 c-0.44 0 -0.88 0.04 -1.32 0.08 c-1.72 0.12 -2.52 -0.12 -4.2 0 c-0.56 0 -0.64 -0.08 -0.68 -0.6 c-0.16 -1.56 0 -3.28 0.16 -4.84 c0.04 -0.64 0.2 -0.76 0.8 -0.8 l5.64 -0.04 c0.76 -0.08 1 -0.04 0.96 -0.8 c-0.08 -1.16 0.04 -2.36 -0.08 -3.52 c-0.08 -0.64 -0.28 -0.76 -1 -0.76 c-1.2 0.04 -1.48 0.04 -2.68 0.12 c-1.2 0.04 -6 0.04 -7.16 0.04 c-1.68 0 -1.8 -0.12 -1.84 1.92 c-0.08 1.6 -0.04 3.24 -0.04 4.88 c0 2.8 -0.16 12.84 -0.08 15.08 z"/></g><g id="SvgjsG2164" featureKey="sloganFeature-0" transform="matrix(0.6958687649866394,0,0,0.6958687649866394,89.95824766505666,224.61810458635927)" fill="#fff"><path d="M8.14 20 l-1.1 -4.42 l-4.88 0 l-1.1 4.42 l-1 0 l4.14 -15 l0.86 0 l4.12 15 l-1.04 0 z M4.66 5.9399999999999995 l-2.26 8.68 l4.38 0 z M17.099 6.140000000000001 l0 6.06 l6.02 0 l0 1.06 l-6.02 0 l0 6.74 l-1.16 0 l0 -15 l7.28 0 l0 1.14 l-6.12 0 z M37.218 20 l-3.3 -6.22 l-3.06 0 l0 6.22 l-0.98 0 l0 -15 l3.4 0 c0.78666 0 1.46 0.11666 2.02 0.35 s1.02 0.55 1.38 0.95 s0.62666 0.86334 0.8 1.39 s0.26 1.0767 0.26 1.65 c0 0.97334 -0.25 1.85 -0.75 2.63 s-1.1567 1.35 -1.97 1.71 l3.52 6.32 l-1.32 0 z M33.138 5.92 l-2.28 -0.000019531 l0 6.84 l2.42 0 c0.68 0 1.24 -0.10334 1.68 -0.31 s0.78334 -0.47332 1.03 -0.79998 s0.42 -0.7 0.52 -1.12 s0.15 -0.85 0.15 -1.29 c0 -0.46666 -0.08 -0.9 -0.24 -1.3 s-0.39 -0.75 -0.69 -1.05 s-0.66666 -0.53666 -1.1 -0.71 s-0.93 -0.26 -1.49 -0.26 z M45.257000000000005 20 l0 -15 l1.28 0 l0 15 l-1.28 0 z M60.79600000000001 16.22 c-0.01334 0.66666 -0.076582 1.25 -0.18992 1.75 s-0.30668 0.91334 -0.58002 1.24 s-0.63334 0.57 -1.08 0.73 s-1.01 0.24 -1.69 0.24 c-1.1733 0 -2.0266 -0.32666 -2.56 -0.98 s-0.8 -1.6467 -0.8 -2.98 l0 -7.4 c0 -1.3333 0.27 -2.3266 0.81 -2.98 s1.4633 -0.98 2.77 -0.98 c1.1733 0 2.0134 0.32666 2.52 0.98 s0.77332 1.6467 0.79998 2.98 l0.02 0.92 l-0.92 0 l-0.02 -1.16 c0 -0.33334 -0.03334 -0.67 -0.1 -1.01 s-0.18666 -0.65 -0.36 -0.93 s-0.41668 -0.50666 -0.73002 -0.68 s-0.73 -0.26 -1.25 -0.26 c-0.50666 0 -0.93 0.08 -1.27 0.24 s-0.61 0.38 -0.81 0.66 s-0.33666 0.61 -0.41 0.99 s-0.11 0.79 -0.11 1.23 l0.04 7.5 c0 0.92 0.17 1.64 0.51 2.16 s0.96334 0.78 1.87 0.78 c0.52 0 0.95 -0.07 1.29 -0.21 s0.60666 -0.33666 0.8 -0.59 s0.33 -0.56 0.41 -0.92 s0.12 -0.75334 0.12 -1.18 l0.02 -1.3 l0.92 0 z M75.435 20 l-1.1 -4.42 l-4.88 0 l-1.1 4.42 l-1 0 l4.14 -15 l0.86 0 l4.12 15 l-1.04 0 z M71.955 5.9399999999999995 l-2.26 8.68 l4.38 0 z M90.054 20 l-5.8 -12.88 l0 12.88 l-1.1 0 l0 -15 l1.18 0 l5.8 12.3 l0.14 -12.3 l1.08 0 l0 15 l-1.3 0 z M114.292 16.22 c-0.01334 0.66666 -0.076582 1.25 -0.18992 1.75 s-0.30668 0.91334 -0.58002 1.24 s-0.63334 0.57 -1.08 0.73 s-1.01 0.24 -1.69 0.24 c-1.1733 0 -2.0266 -0.32666 -2.56 -0.98 s-0.8 -1.6467 -0.8 -2.98 l0 -7.4 c0 -1.3333 0.27 -2.3266 0.81 -2.98 s1.4633 -0.98 2.77 -0.98 c1.1733 0 2.0134 0.32666 2.52 0.98 s0.77332 1.6467 0.79998 2.98 l0.02 0.92 l-0.92 0 l-0.02 -1.16 c0 -0.33334 -0.03334 -0.67 -0.1 -1.01 s-0.18666 -0.65 -0.36 -0.93 s-0.41668 -0.50666 -0.73002 -0.68 s-0.73 -0.26 -1.25 -0.26 c-0.50666 0 -0.93 0.08 -1.27 0.24 s-0.61 0.38 -0.81 0.66 s-0.33666 0.61 -0.41 0.99 s-0.11 0.79 -0.11 1.23 l0.04 7.5 c0 0.92 0.17 1.64 0.51 2.16 s0.96334 0.78 1.87 0.78 c0.52 0 0.95 -0.07 1.29 -0.21 s0.60666 -0.33666 0.8 -0.59 s0.33 -0.56 0.41 -0.92 s0.12 -0.75334 0.12 -1.18 l0.02 -1.3 l0.92 0 z M128.47099999999998 20 l-0.02 -6.98 l-5.48 0 l0.02 6.98 l-1.16 0 l0 -15 l1.16 0 l-0.02 6.96 l5.48 0 l0.02 -6.96 l1.18 0 l0 15 l-1.18 0 z M144.25 20 l-1.1 -4.42 l-4.88 0 l-1.1 4.42 l-1 0 l4.14 -15 l0.86 0 l4.12 15 l-1.04 0 z M140.76999999999998 5.9399999999999995 l-2.26 8.68 l4.38 0 z M161.00899999999996 20 l0 -12.72 l-3.62 8.66 l-1.12 -0.02 l-3.54 -8.66 l0 12.74 l-0.98 0 l0 -15 l1.04 0 l4.06 9.76 l4.08 -9.76 l1.06 0 l0 15 l-0.98 0 z M172.78799999999995 14.36 l-2.16 0 l0 5.64 l-1.16 0 l0 -15 l3.62 0 c1.32 0 2.3566 0.40334 3.11 1.21 s1.13 1.9767 1.13 3.51 c0 0.68 -0.11 1.3033 -0.33 1.87 s-0.53 1.0567 -0.93 1.47 s-0.87666 0.73334 -1.43 0.96 s-1.17 0.34 -1.85 0.34 z M172.68799999999996 6.02 l-2.06 0.000019531 l0 7.24 l1.86 0 c0.68 0 1.2533 -0.09666 1.72 -0.29 s0.84332 -0.45334 1.13 -0.78 s0.49332 -0.70666 0.61998 -1.14 s0.19 -0.89 0.19 -1.37 c0 -0.49334 -0.04666 -0.96334 -0.14 -1.41 s-0.26668 -0.83666 -0.52002 -1.17 s-0.60668 -0.59668 -1.06 -0.79002 s-1.0333 -0.29 -1.74 -0.29 z M187.84699999999998 20.18 c-0.65334 0 -1.2335 -0.086738 -1.7401 -0.26008 s-0.93332 -0.45 -1.28 -0.83 s-0.60332 -0.87666 -0.76998 -1.49 s-0.23666 -1.3533 -0.21 -2.22 l1.2 0 c0 0.42666 0.02 0.87 0.06 1.33 s0.14666 0.88 0.32 1.26 s0.43668 0.69 0.79002 0.93 s0.84334 0.36 1.47 0.36 c0.53334 0 0.98668 -0.08 1.36 -0.24 s0.67668 -0.37334 0.91002 -0.64 s0.39668 -0.58 0.49002 -0.94 s0.14 -0.73334 0.14 -1.12 c0 -0.45334 -0.08334 -0.85 -0.25 -1.19 s-0.38666 -0.64334 -0.66 -0.91 s-0.59334 -0.50332 -0.96 -0.70998 s-0.75 -0.39 -1.15 -0.55 c-0.64 -0.25334 -1.2 -0.50334 -1.68 -0.75 s-0.87334 -0.52332 -1.18 -0.82998 s-0.53666 -0.66332 -0.69 -1.07 s-0.23 -0.90332 -0.23 -1.49 c0 -1.3333 0.35 -2.3266 1.05 -2.98 s1.7033 -0.98 3.01 -0.98 c1.1333 0 2.03 0.33 2.69 0.99 s0.99 1.65 0.99 2.97 l0 1.1 l-1.12 0 l0 -1.2 c0 -0.41334 -0.05 -0.79668 -0.15 -1.15 s-0.25666 -0.66334 -0.47 -0.93 s-0.48334 -0.47666 -0.81 -0.63 s-0.71666 -0.23 -1.17 -0.23 c-1.0667 0 -1.83 0.28 -2.29 0.84 s-0.67 1.3133 -0.63 2.26 c0.01334 0.41334 0.09 0.76668 0.23 1.06 s0.32666 0.55 0.56 0.77 s0.51334 0.41666 0.84 0.59 s0.69 0.34668 1.09 0.52002 c0.46666 0.2 0.93 0.41334 1.39 0.64 s0.89 0.50666 1.29 0.84 c0.4 0.34666 0.73 0.75 0.99 1.21 s0.39 1.03 0.39 1.71 c0 1.32 -0.33666 2.31 -1.01 2.97 s-1.61 0.99 -2.81 0.99 z"/></g>
			</g>
		</svg>
	